<svg width="74" height="58" viewBox="0 0 74 58" fill="none" xmlns="http://www.w3.org/2000/svg">
<path d="M0 0H73.7398V45.9181C73.7398 52.5908 68.3306 58 61.6579 58H12.0818C5.40923 58 0 52.5908 0 45.9181V0Z" fill="url(#paint0_linear_1_9)"/>
<path d="M57.5192 23.897C57.0236 23.897 56.5281 23.9966 56.1322 24.0963C54.4463 24.4922 52.9597 25.4833 51.7719 26.4744C50.7808 27.2662 49.8868 27.961 48.8957 28.5562L48.2035 23.9966C48.1038 23.2022 48.0042 22.4104 47.8049 21.5189C47.6083 20.6275 47.409 19.833 47.0131 19.0412C46.3183 17.4549 45.2302 15.9683 43.9402 14.8776C41.3629 12.5965 37.6948 11.6054 34.5249 12.3002C36.2082 12.2006 37.7944 12.4995 39.3807 12.995C40.8673 13.5876 42.2543 14.4817 43.345 15.5724C45.0309 17.156 46.1217 19.3375 46.4179 21.8152C46.5176 22.6096 46.6172 23.4015 46.7168 24.2929L47.2124 29.251C47.2124 29.5473 47.6083 32.5205 47.5087 32.3213V32.6202C47.5087 32.7198 47.5087 32.7198 47.5087 32.8194C47.5087 33.0161 47.409 33.2153 47.3094 33.412C47.0131 33.8105 46.4179 34.2064 45.7258 34.5027C45.0309 34.8016 44.2365 34.9982 43.5443 35.0979C41.958 35.3942 40.3718 35.4938 38.7855 35.4938C35.613 35.4938 32.2438 35.0979 29.2705 34.2064C28.5757 34.0072 27.7839 33.7109 27.1887 33.315C26.8924 33.1157 26.6932 32.9164 26.5935 32.7198C26.4939 32.6202 26.4939 32.5205 26.4939 32.5205L26.3969 31.9253L25.7021 26.9699C25.6025 26.1781 25.4058 25.284 25.4058 24.4922C25.4058 24.0963 25.3062 23.6977 25.3062 23.3018V22.7066L25.4058 22.1141C25.6025 20.5278 25.9984 19.0412 26.8924 17.6516C28.4787 14.8776 31.3523 12.8954 34.6219 12.3002C31.2527 12.4995 28.0802 14.382 26.098 17.156C25.1069 18.5456 24.4147 20.2289 24.2155 21.9148C24.0162 22.3107 24.0162 22.8063 24.0162 23.2022C24.0162 23.6007 24.0162 24.0963 24.0162 24.4922C24.0162 25.3836 24.2155 26.1781 24.2155 26.9699L24.3151 28.1603C22.1336 28.3569 19.8552 28.7554 17.7734 29.6469C16.583 30.1424 15.4923 30.8346 14.4016 31.6291C13.4105 32.5205 12.6187 33.7109 12.1231 34.9982C12.0235 35.1975 12.1231 35.3942 12.2227 35.5934C12.4194 35.9893 12.9149 36.089 13.3109 35.8897C14.5012 35.1975 15.8882 35.0979 17.3748 35.2971C18.7645 35.5934 20.1515 36.1886 21.3418 37.0801C22.6292 37.9715 23.7199 38.9626 25.0073 40.0533C25.6025 40.5489 26.2973 41.0444 26.9895 41.54L27.9832 42.2348L29.0713 42.8299C34.8212 46.0995 41.958 46.7943 48.3005 44.8121C51.473 43.821 54.4463 42.2348 56.924 39.9537C59.3047 37.6752 61.1873 34.6023 61.5832 31.2332C61.7824 29.5473 61.5832 27.8614 60.988 26.1781C60.2958 24.8881 59.0058 23.9966 57.5192 23.897ZM59.8999 31.1335C59.5014 34.1068 57.8181 36.7838 55.6366 38.766C48.8957 44.8121 38.1903 45.7036 30.0624 41.2437C28.6754 40.5489 27.4876 39.6574 26.2973 38.6663C25.1069 37.6752 23.8195 36.5845 22.4299 35.6931C21.0429 34.8016 19.4567 34.0072 17.7734 33.7109C16.7823 33.5116 15.6916 33.5116 14.6008 33.8105C14.8971 33.412 15.0964 33.1157 15.4923 32.8194C16.2867 32.025 17.2778 31.4298 18.3659 30.9343C20.2511 30.0428 22.3329 29.5473 24.5117 29.348L24.8106 31.9253L24.9103 32.5205C25.0073 32.8194 25.1069 33.2153 25.2065 33.412C25.5028 33.9075 25.9014 34.3061 26.2973 34.6023C27.0891 35.1975 27.8835 35.4938 28.775 35.7927C30.4609 36.3852 32.1442 36.6841 33.8301 36.8808C35.516 37.0801 37.1992 37.2793 38.8851 37.2793C40.571 37.2793 42.2543 37.1797 44.0399 36.8808C44.9313 36.6841 45.7258 36.4849 46.6172 36.1886C47.409 35.7927 48.4001 35.3942 48.9953 34.4031C49.2942 33.9075 49.5905 33.315 49.4908 32.7198V32.025C49.4908 31.8257 49.0949 29.5473 49.1946 29.6469C51.9686 28.2573 53.9507 25.8792 56.6277 25.3836C57.0236 25.284 57.3225 25.284 57.6188 25.284C58.6099 25.3836 59.4044 25.9788 59.7006 26.8703C59.9969 28.1603 60.0965 29.7465 59.8999 31.1335Z" fill="white"/>
<defs>
<linearGradient id="paint0_linear_1_9" x1="2.50715" y1="9.81595e-07" x2="76.7074" y2="151.869" gradientUnits="userSpaceOnUse">
<stop stop-color="#F87B83"/>
<stop offset="1" stop-color="white"/>
</linearGradient>
</defs>
</svg>
